{
	"accessors" : 
	[
		{
			"bufferView" : 2,
			"byteOffset" : 0,
			"componentType" : 5126,
			"count" : 480,
			"max" : 
			[
				1,
				0.835527777671814,
				0.03994716703891754,
				1
			],
			"min" : 
			[
				1,
				0.3203815817832947,
				0,
				1
			],
			"name" : "accessor_color_m0-PolyPaper12_-888670",
			"type" : "VEC4"
		},
		{
			"bufferView" : 2,
			"byteOffset" : 7680,
			"componentType" : 5126,
			"count" : 9996,
			"max" : 
			[
				1,
				0.835527777671814,
				0.06190747767686844,
				1
			],
			"min" : 
			[
				0.006584956776350737,
				0.006584956776350737,
				0,
				1
			],
			"name" : "accessor_color_m1-PolyPaper12_-887846",
			"type" : "VEC4"
		},
		{
			"bufferView" : 2,
			"byteOffset" : 167616,
			"componentType" : 5126,
			"count" : 9960,
			"max" : 
			[
				1,
				0.835527777671814,
				0.03994716703891754,
				1
			],
			"min" : 
			[
				1,
				0.3203815817832947,
				0,
				1
			],
			"name" : "accessor_color_m2-PolyPaper12_-888650",
			"type" : "VEC4"
		},
		{
			"bufferView" : 0,
			"byteOffset" : 0,
			"componentType" : 5123,
			"count" : 864,
			"max" : 
			[
				479
			],
			"min" : 
			[
				0
			],
			"name" : "accessor_indices_0_m0-PolyPaper12_-888670",
			"type" : "SCALAR"
		},
		{
			"bufferView" : 0,
			"byteOffset" : 1728,
			"componentType" : 5123,
			"count" : 18108,
			"max" : 
			[
				9995
			],
			"min" : 
			[
				0
			],
			"name" : "accessor_indices_0_m1-PolyPaper12_-887846",
			"type" : "SCALAR"
		},
		{
			"bufferView" : 0,
			"byteOffset" : 37944,
			"componentType" : 5123,
			"count" : 18228,
			"max" : 
			[
				9959
			],
			"min" : 
			[
				0
			],
			"name" : "accessor_indices_0_m2-PolyPaper12_-888650",
			"type" : "SCALAR"
		},
		{
			"bufferView" : 1,
			"byteOffset" : 5760,
			"componentType" : 5126,
			"count" : 480,
			"max" : 
			[
				0.9977939,
				0.9991314,
				0.9997563
			],
			"min" : 
			[
				-0.9977945,
				-0.9991315,
				-0.9997563
			],
			"name" : "accessor_normal_m0-PolyPaper12_-888670",
			"type" : "VEC3"
		},
		{
			"bufferView" : 1,
			"byteOffset" : 131472,
			"componentType" : 5126,
			"count" : 9996,
			"max" : 
			[
				0.9998004,
				0.9999954,
				0.999685
			],
			"min" : 
			[
				-0.9998005,
				-0.9999954,
				-0.9996851
			],
			"name" : "accessor_normal_m1-PolyPaper12_-887846",
			"type" : "VEC3"
		},
		{
			"bufferView" : 1,
			"byteOffset" : 370944,
			"componentType" : 5126,
			"count" : 9960,
			"max" : 
			[
				0.9990072,
				0.9999989,
				0.9998075
			],
			"min" : 
			[
				-0.9990069,
				-0.9999989,
				-0.9998076
			],
			"name" : "accessor_normal_m2-PolyPaper12_-888650",
			"type" : "VEC3"
		},
		{
			"bufferView" : 1,
			"byteOffset" : 0,
			"componentType" : 5126,
			"count" : 480,
			"max" : 
			[
				0.7389717,
				2.2767,
				0.3694766
			],
			"min" : 
			[
				0.4803042,
				2.186126,
				-0.01495612
			],
			"name" : "accessor_position_m0-PolyPaper12_-888670",
			"type" : "VEC3"
		},
		{
			"bufferView" : 1,
			"byteOffset" : 11520,
			"componentType" : 5126,
			"count" : 9996,
			"max" : 
			[
				0.767133,
				2.355075,
				0.3757043
			],
			"min" : 
			[
				0.4060007,
				1.973729,
				-0.04798218
			],
			"name" : "accessor_position_m1-PolyPaper12_-887846",
			"type" : "VEC3"
		},
		{
			"bufferView" : 1,
			"byteOffset" : 251424,
			"componentType" : 5126,
			"count" : 9960,
			"max" : 
			[
				0.7015496,
				2.282224,
				0.3813615
			],
			"min" : 
			[
				0.4138375,
				2.000264,
				-0.01446277
			],
			"name" : "accessor_position_m2-PolyPaper12_-888650",
			"type" : "VEC3"
		}
	],
	"asset" : 
	{
		"copyright" : "Unknown",
		"generator" : "glTF 1-to-2 Upgrader for Google Blocks",
		"version" : "2.0"
	},
	"bufferViews" : 
	[
		{
			"buffer" : 0,
			"byteLength" : 74400,
			"byteOffset" : 0,
			"name" : "ushortBufferView",
			"target" : 34963
		},
		{
			"buffer" : 0,
			"byteLength" : 490464,
			"byteOffset" : 74400,
			"byteStride" : 12,
			"name" : "vec3BufferView",
			"target" : 34962
		},
		{
			"buffer" : 0,
			"byteLength" : 326976,
			"byteOffset" : 564864,
			"byteStride" : 16,
			"name" : "vec4BufferView",
			"target" : 34962
		}
	],
	"buffers" : 
	[
		{
			"byteLength" : 891840,
			"name" : "model",
			"uri" : "model.bin"
		}
	],
	"materials" : 
	[
		{
			"alphaMode" : "OPAQUE",
			"doubleSided" : false,
			"name" : "BlocksPaper",
			"pbrMetallicRoughness" : 
			{
				"baseColorFactor" : 
				[
					1,
					1,
					1,
					1
				],
				"metallicFactor" : 0,
				"roughnessFactor" : 0.6
			}
		},
		{
			"alphaMode" : "BLEND",
			"doubleSided" : false,
			"name" : "BlocksGlass",
			"pbrMetallicRoughness" : 
			{
				"baseColorFactor" : 
				[
					0.2,
					0.2,
					1,
					0.3
				],
				"metallicFactor" : 1,
				"roughnessFactor" : 0.4
			}
		},
		{
			"alphaMode" : "OPAQUE",
			"doubleSided" : true,
			"name" : "BlocksGem",
			"pbrMetallicRoughness" : 
			{
				"baseColorFactor" : 
				[
					1,
					0.4,
					1,
					1
				],
				"metallicFactor" : 0,
				"roughnessFactor" : 0.1
			}
		}
	],
	"meshes" : 
	[
		{
			"name" : "mesh_m0-PolyPaper12_-888670",
			"primitives" : 
			[
				{
					"attributes" : 
					{
						"COLOR_0" : 0,
						"NORMAL" : 6,
						"POSITION" : 9
					},
					"indices" : 3,
					"material" : 0,
					"mode" : 4
				}
			]
		},
		{
			"name" : "mesh_m1-PolyPaper12_-887846",
			"primitives" : 
			[
				{
					"attributes" : 
					{
						"COLOR_0" : 1,
						"NORMAL" : 7,
						"POSITION" : 10
					},
					"indices" : 4,
					"material" : 0,
					"mode" : 4
				}
			]
		},
		{
			"name" : "mesh_m2-PolyPaper12_-888650",
			"primitives" : 
			[
				{
					"attributes" : 
					{
						"COLOR_0" : 2,
						"NORMAL" : 8,
						"POSITION" : 11
					},
					"indices" : 5,
					"material" : 0,
					"mode" : 4
				}
			]
		}
	],
	"nodes" : 
	[
		{
			"matrix" : 
			[
				1,
				0,
				0,
				0,
				0,
				1,
				0,
				0,
				0,
				0,
				1,
				0,
				0,
				0,
				0,
				1
			],
			"mesh" : 0,
			"name" : "node_MeshObject-1059845632-PolyPaper12"
		},
		{
			"matrix" : 
			[
				1,
				0,
				0,
				0,
				0,
				1,
				0,
				0,
				0,
				0,
				1,
				0,
				0,
				0,
				0,
				1
			],
			"mesh" : 1,
			"name" : "node_MeshObject-78522752-PolyPaper12"
		},
		{
			"matrix" : 
			[
				1,
				0,
				0,
				0,
				0,
				1,
				0,
				0,
				0,
				0,
				1,
				0,
				0,
				0,
				0,
				1
			],
			"mesh" : 2,
			"name" : "node_MeshObject660140032-PolyPaper12"
		}
	],
	"scene" : 0,
	"scenes" : 
	[
		{
			"extras" : {},
			"name" : "defaultScene",
			"nodes" : 
			[
				0,
				1,
				2
			]
		}
	]
}